<svg xmlns="http://www.w3.org/2000/svg" viewBox="0 0 60.52 46.84"><defs><style>.cls-1{fill:#fff;}.cls-2{fill:#78b7ff;}</style></defs><title>Forgot Password</title><g id="Layer_2" data-name="Layer 2"><g id="Layer_1-2" data-name="Layer 1"><rect class="cls-1" x="19.87" y="28.82" width="20.78" height="18.02" rx="3.63"/><path class="cls-2" d="M32.85,34.86a2.59,2.59,0,0,0-5.18,0,2.56,2.56,0,0,0,.83,1.89v5.09a1.71,1.71,0,1,0,3.42,0v-5A2.6,2.6,0,0,0,32.85,34.86Z"/><path class="cls-2" d="M36.34,28.82h-3V26.05c0-2.15-1.38-3.91-3.08-3.91s-3.09,1.76-3.09,3.91v2.77h-3V26.05c0-3.81,2.73-6.91,6.09-6.91s6.08,3.1,6.08,6.91Z"/><path class="cls-1" d="M5.84,4.23,7.19,5.82,5.35,7.34,3.89,5.54,2.44,7.34.59,5.82,1.94,4.24,0,3.57.8,1.33,2.7,2V0H5.09V2L7,1.33l.8,2.24Z"/><path class="cls-1" d="M16.39,4.23l1.35,1.59L15.9,7.34l-1.47-1.8L13,7.34,11.14,5.82l1.35-1.58-2-.67.8-2.24,1.91.7V0h2.38V2l1.91-.7.8,2.24Z"/><path class="cls-1" d="M26.93,4.23l1.35,1.59L26.44,7.34,25,5.54l-1.46,1.8L21.68,5.82,23,4.24l-1.94-.67.8-2.24,1.9.7V0h2.39V2l1.9-.7.8,2.24Z"/><path class="cls-1" d="M37.48,4.23l1.35,1.59L37,7.34l-1.47-1.8-1.45,1.8L32.22,5.82l1.36-1.58-1.95-.67.8-2.24,1.91.7V0h2.38V2l1.9-.7.81,2.24Z"/><path class="cls-1" d="M48,4.23l1.35,1.59L47.53,7.34l-1.46-1.8-1.46,1.8L42.77,5.82l1.35-1.58-1.94-.67L43,1.33l1.9.7V0h2.39V2l1.9-.7L50,3.57Z"/><path class="cls-1" d="M58.57,4.23l1.35,1.59L58.08,7.34l-1.47-1.8-1.45,1.8L53.31,5.82l1.36-1.58-2-.67.8-2.24,1.9.7V0h2.39V2l1.9-.7.81,2.24Z"/></g></g></svg>