<svg xmlns="http://www.w3.org/2000/svg" viewBox="0 0 75 30.23"><defs><style>.cls-1{fill:#fff;}.cls-2{fill:#78b7ff;}</style></defs><title>Veirfy</title><g id="Layer_2" data-name="Layer 2"><g id="Layer_1-2" data-name="Layer 1"><rect class="cls-1" width="70.78" height="20.19" rx="10.1"/><path class="cls-2" d="M24.82,4.68h1.83l-2.91,8.57h-2l-2.9-8.57h1.83l1.61,5.1c.09.3.18.65.28,1.05s.15.68.18.83a14.52,14.52,0,0,1,.44-1.88Z"/><path class="cls-2" d="M30.08,13.36a3.41,3.41,0,0,1-2.48-.87A3.32,3.32,0,0,1,26.71,10a3.64,3.64,0,0,1,.83-2.55,2.92,2.92,0,0,1,2.27-.9A2.89,2.89,0,0,1,32,7.36a3,3,0,0,1,.78,2.19v.87H28.52A1.75,1.75,0,0,0,29,11.61a1.63,1.63,0,0,0,1.19.42,5.06,5.06,0,0,0,1.12-.12,5.4,5.4,0,0,0,1.1-.39V12.9a4.23,4.23,0,0,1-1,.35A6.85,6.85,0,0,1,30.08,13.36Zm-.26-5.52a1.15,1.15,0,0,0-.89.36,1.76,1.76,0,0,0-.37,1h2.51a1.52,1.52,0,0,0-.34-1A1.2,1.2,0,0,0,29.82,7.84Z"/><path class="cls-2" d="M37.38,6.57a3.28,3.28,0,0,1,.6,0L37.85,8.3a2,2,0,0,0-.53-.06A1.89,1.89,0,0,0,36,8.68a1.58,1.58,0,0,0-.48,1.23v3.34H33.72V6.7h1.35l.27,1.1h.09a2.34,2.34,0,0,1,.82-.89A2,2,0,0,1,37.38,6.57Z"/><path class="cls-2" d="M38.61,5c0-.58.33-.87,1-.87s1,.29,1,.87a.87.87,0,0,1-.24.65,1.06,1.06,0,0,1-.73.23C38.94,5.88,38.61,5.59,38.61,5Zm1.87,8.25H38.69V6.7h1.79Z"/><path class="cls-2" d="M45.49,8H44v5.21H42.16V8h-1V7.18l1-.48V6.21a2.13,2.13,0,0,1,.55-1.63,2.53,2.53,0,0,1,1.76-.52,4.67,4.67,0,0,1,1.65.28l-.46,1.31a3.43,3.43,0,0,0-1-.17.63.63,0,0,0-.55.23.88.88,0,0,0-.17.57V6.7h1.54Z"/><path class="cls-2" d="M45.1,6.7h2l1.23,3.68a4.91,4.91,0,0,1,.22,1.14h0a4.72,4.72,0,0,1,.25-1.14L50,6.7h1.92l-2.77,7.38a3.23,3.23,0,0,1-1.09,1.54,2.74,2.74,0,0,1-1.65.51,4,4,0,0,1-.91-.1V14.61a3.13,3.13,0,0,0,.7.08A1.27,1.27,0,0,0,47,14.4a2,2,0,0,0,.56-.88l.1-.32Z"/><path class="cls-1" d="M66.17,24.64a.52.52,0,0,0-.71,0l-2.09,2.1L59.75,15l11.77,3.62-2.1,2.1a.48.48,0,0,0,0,.7l4.87,4.88L71,29.52Z"/><path class="cls-2" d="M60.5,15.73l10.08,3.09-1.51,1.51a1,1,0,0,0,0,1.42l4.52,4.52L71,28.81l-4.52-4.52a1,1,0,0,0-1.41,0L63.6,25.8,60.5,15.73M59,14.22l4.14,13.46L65.82,25,71,30.23l4-4L69.77,21l2.69-2.68L59,14.22Z"/></g></g></svg>